<?xml version="1.0" encoding="UTF-8"?>
<svg version="1.1" xmlns="http://www.w3.org/2000/svg" width="2460" height="596">
<path d="M0 0 C77.55 0 155.1 0 235 0 C235 16.5 235 33 235 50 C175.6 50 116.2 50 55 50 C55 59.24 55 68.48 55 78 C97.24 78 139.48 78 183 78 C183 94.5 183 111 183 128 C140.76 128 98.52 128 55 128 C55 136.91 55 145.82 55 155 C114.4 155 173.8 155 235 155 C235 171.5 235 188 235 205 C157.45 205 79.9 205 0 205 C0 137.35 0 69.7 0 0 Z " fill="#0E1D49" transform="translate(1919,142)"/>
<path d="M0 0 C1.56869477 0.00113178 3.13739165 0.0004882 4.70608521 -0.00177002 C8.9139321 -0.00290524 13.12131139 0.02040787 17.32905078 0.04852581 C21.74522626 0.07374108 26.16141561 0.07589717 30.57765198 0.08062744 C38.91771474 0.09299865 47.25756467 0.1257399 55.59753424 0.1660254 C65.10190325 0.21092674 74.60628308 0.23277606 84.11073196 0.25280714 C103.6411047 0.29447864 123.17118616 0.36775662 142.70141602 0.45410156 C142.70141602 16.95410156 142.70141602 33.45410156 142.70141602 50.45410156 C135.93262939 50.47597534 135.93262939 50.47597534 129.02709961 50.49829102 C114.1311886 50.54858871 99.23538203 50.61502466 84.33957481 50.68981647 C75.30671734 50.73477522 66.27389931 50.77418971 57.2409668 50.80053711 C49.36753337 50.82351654 41.49422472 50.85691396 33.62089026 50.90280312 C29.45230295 50.9267361 25.28383923 50.94546438 21.11518478 50.95171547 C17.19007163 50.95776601 13.26527469 50.97776456 9.34027863 51.00837708 C7.90119498 51.01715782 6.46207001 51.0208798 5.02296066 51.01910973 C3.05444509 51.01745323 1.0859436 51.03594648 -0.88247681 51.05537415 C-1.98309763 51.05998311 -3.08371845 51.06459208 -4.21769142 51.06934071 C-7.76030008 51.51176351 -10.17958252 52.76511972 -13.29858398 54.45410156 C-13.95858398 54.45410156 -14.61858398 54.45410156 -15.29858398 54.45410156 C-17.84323075 59.22531426 -18.00091093 64.18231411 -17.29858398 69.45410156 C-14.96366082 73.60507608 -12.79458994 75.12857222 -8.29858398 76.45410156 C-4.7260117 76.75067203 -1.16328369 76.73433961 2.41992188 76.7253418 C3.50031738 76.73056854 4.58071289 76.73579529 5.69384766 76.74118042 C8.03898098 76.751416 10.38413699 76.75720005 12.72929192 76.75906181 C16.45119132 76.76272974 20.17282527 76.77947177 23.89466858 76.79981995 C33.14608323 76.84820876 42.39753413 76.87976657 51.64904785 76.90112305 C59.45656673 76.9192673 67.2638559 76.9487612 75.07126045 76.99516487 C77.52978082 77.00675061 79.98833459 77.01274465 82.44688225 77.01284599 C103.35955003 77.01401982 122.43255024 78.23556976 139.70141602 91.45410156 C140.45165039 92.02773437 141.20188477 92.60136719 141.97485352 93.19238281 C154.43373434 103.46139209 160.87478693 117.59896107 162.70141602 133.45410156 C164.07895424 149.32966504 159.23127674 165.26480428 149.18969727 177.64550781 C135.44887462 193.71051239 117.54425897 202.82899232 96.70141602 205.45410156 C94.2833522 205.539096 91.8632973 205.57615501 89.44374084 205.57435608 C88.39958886 205.57563772 88.39958886 205.57563772 87.3343429 205.57694525 C85.02055721 205.57858182 82.70684532 205.57310876 80.39306641 205.56762695 C78.72703045 205.56734466 77.06099438 205.56750364 75.3949585 205.56806946 C70.8851753 205.56835579 66.37541883 205.56248551 61.86564183 205.5554955 C57.14776957 205.54923472 52.42989665 205.54865601 47.71202087 205.54747009 C38.78388275 205.54436481 29.85575689 205.53616225 20.92762417 205.5261206 C10.76078875 205.51493453 0.59395274 205.50944273 -9.5728873 205.50442517 C-30.48146123 205.49397896 -51.39001834 205.47564346 -72.29858398 205.45410156 C-72.29858398 188.95410156 -72.29858398 172.45410156 -72.29858398 155.45410156 C-64.71974243 155.42437256 -64.71974243 155.42437256 -56.98779297 155.39404297 C-40.30775987 155.32718338 -23.62778913 155.2496428 -6.94782925 155.16657448 C3.16676383 155.11646401 13.28134887 155.07002087 23.39599609 155.03222656 C32.21246139 154.99927371 41.028864 154.95942423 49.84526008 154.91131151 C54.51296745 154.88607931 59.18063341 154.86428831 63.84839058 154.8507576 C68.24374055 154.83790752 72.63894827 154.81582132 77.03421974 154.78671837 C78.64543366 154.77766563 80.25667046 154.77195774 81.86790848 154.76988792 C84.07266765 154.76654905 86.27702749 154.75102829 88.48170471 154.73257446 C89.71414193 154.7270437 90.94657915 154.72151295 92.21636295 154.71581459 C97.7123288 154.30309035 101.54873903 153.55666216 105.57641602 149.70410156 C108.27508518 145.57672519 109.19979348 143.03779525 108.25610352 138.14550781 C106.93643812 133.18728487 106.93643812 133.18728487 103.20141602 129.95410156 C102.37641602 129.78910156 101.55141602 129.62410156 100.70141602 129.45410156 C99.71141602 129.12410156 98.72141602 128.79410156 97.70141602 128.45410156 C96.14901037 128.3615666 94.59294007 128.32514644 93.03778076 128.32279968 C92.0792923 128.3187915 91.12080383 128.31478333 90.13327026 128.31065369 C89.0829361 128.3111824 88.03260193 128.31171112 86.95043945 128.31225586 C85.28880264 128.30704422 85.28880264 128.30704422 83.59359741 128.30172729 C81.18239597 128.29436547 78.77118773 128.28902237 76.35997772 128.28543663 C72.53299998 128.27826826 68.70615024 128.2625953 64.87921143 128.24409485 C53.99574717 128.19166729 43.11234817 128.14329315 32.22875977 128.12817383 C25.57263852 128.11883237 18.91688082 128.08857161 12.26087189 128.04685402 C9.73340522 128.03460766 7.20589347 128.02941101 4.67839813 128.03165245 C-17.48183994 128.04645802 -38.43287997 126.03449054 -55.24389648 109.76269531 C-68.16143422 95.2488839 -73.30120622 79.14339201 -72.47338867 59.7265625 C-71.22762635 43.53165226 -63.76807495 29.76833715 -52.29858398 18.45410156 C-51.58831055 17.73351562 -50.87803711 17.01292969 -50.14624023 16.27050781 C-36.31107021 3.03577916 -18.43986823 -0.1897626 0 0 Z " fill="#0E1D49" transform="translate(1692.298583984375,141.5458984375)"/>
<path d="M0 0 C26.915625 -0.061875 53.83125 -0.12375 81.5625 -0.1875 C94.27890015 -0.22846802 94.27890015 -0.22846802 107.25219727 -0.27026367 C117.65808105 -0.28381348 117.65808105 -0.28381348 122.53990173 -0.28633118 C125.92680336 -0.28910981 129.31356184 -0.3002866 132.70042419 -0.31672668 C137.03744535 -0.33749595 141.37426212 -0.34343843 145.71132839 -0.33921683 C147.29247845 -0.34009795 148.87363659 -0.34593229 150.4547435 -0.35764539 C174.12577071 -0.52467964 195.87711822 6.02787246 213.171875 22.9765625 C228.26810931 38.59512243 235.18918743 59.55875786 235 81 C233.5562488 103.30040319 224.31093565 121.43794937 208.41015625 136.90234375 C201.17765203 143.19708405 192.78416856 147.3130279 184 151 C188.82470032 156.82158363 194.03401874 162.13346172 199.4140625 167.44140625 C201.24492594 169.25963043 203.07565097 171.07799399 204.90625 172.89648438 C207.77192867 175.73843779 210.6401196 178.5778357 213.51074219 181.41479492 C216.29632682 184.16833024 219.07385218 186.92992744 221.8515625 189.69140625 C223.13759872 190.95725304 223.13759872 190.95725304 224.44961548 192.24867249 C225.25079803 193.04647629 226.05198059 193.84428009 226.87744141 194.66625977 C227.57882233 195.36018326 228.28020325 196.05410675 229.00283813 196.76905823 C231.30772115 199.34374178 233.14261727 202.09065995 235 205 C223.38091047 206.49915455 211.76430775 207.49955952 200.0625 208.0625 C199.19367313 208.1042976 198.32484627 208.1460952 197.42969131 208.18915939 C161.78821656 209.69794416 161.78821656 209.69794416 148.13595581 197.2796936 C142.21890267 191.50686949 136.96058878 185.23549933 131.77362823 178.811409 C118.35437016 161.34508914 118.35437016 161.34508914 98.68841553 152.92733765 C83.80425869 151.38252189 70.11002454 153.41557287 55 155 C55 171.5 55 188 55 205 C36.85 205 18.7 205 0 205 C0 137.35 0 69.7 0 0 Z M55 50 C55 68.15 55 86.3 55 105 C74.48433894 105.14551252 74.48433894 105.14551252 93.96875 105.24414062 C101.91977481 105.27399009 109.87048111 105.30924164 117.82128906 105.37719727 C124.23389978 105.43166077 130.64620059 105.46145124 137.05902481 105.47438622 C139.50138347 105.48360021 141.94372583 105.50159302 144.385952 105.52865028 C147.81610055 105.56512949 151.24498058 105.56993723 154.67529297 105.56762695 C155.67727219 105.58560333 156.6792514 105.60357971 157.71159363 105.62210083 C165.93496334 105.56246085 172.24494713 103.06671978 178.62109375 97.859375 C184.5593282 90.9633608 187.69029437 84.48498294 187.2734375 75.25 C186.22603691 66.63138942 182.47886731 60.75258859 176 55 C171.14494475 51.86408353 166.25891476 49.87313693 160.46321106 49.87974548 C159.53353012 49.87837082 158.60384918 49.87699615 157.64599609 49.87557983 C156.11930298 49.88097275 156.11930298 49.88097275 154.56176758 49.88647461 C153.48843674 49.88632858 152.4151059 49.88618256 151.30924988 49.8860321 C147.75432325 49.8867299 144.19944874 49.89451614 140.64453125 49.90234375 C138.18259205 49.9042084 135.72065247 49.90563208 133.25871277 49.90663147 C126.77319314 49.91045294 120.28769585 49.92028009 113.80218506 49.93133545 C106.02368901 49.94335418 98.24518509 49.94795357 90.46668243 49.95378876 C78.64443942 49.96349201 66.82224541 49.9826512 55 50 Z " fill="#0E1D49" transform="translate(998,142)"/>
<path d="M0 0 C26.915625 -0.061875 53.83125 -0.12375 81.5625 -0.1875 C94.27890015 -0.22846802 94.27890015 -0.22846802 107.25219727 -0.27026367 C117.65808105 -0.28381348 117.65808105 -0.28381348 122.53990173 -0.28633118 C125.92680336 -0.28910981 129.31356184 -0.3002866 132.70042419 -0.31672668 C137.03744535 -0.33749595 141.37426212 -0.34343843 145.71132839 -0.33921683 C147.29247845 -0.34009795 148.87363659 -0.34593229 150.4547435 -0.35764539 C173.71194828 -0.52175951 195.08129574 5.73337081 212.328125 22.1328125 C226.89612625 37.76572612 235.20649664 57.4325728 235 79 C233.91005066 101.1327511 225.8293255 119.57839955 210 135 C209.41734375 135.59167969 208.8346875 136.18335938 208.234375 136.79296875 C201.67221566 142.97399258 192.41664488 147.88742944 184 151 C188.678713 156.63287499 193.69354895 161.79509939 198.90625 166.93359375 C200.63685513 168.65155533 202.36731959 170.36965863 204.09765625 172.08789062 C206.80127682 174.76670959 209.50647499 177.4438952 212.21435547 180.1184082 C214.84529443 182.71899937 217.46985894 185.32589433 220.09375 187.93359375 C221.29868103 189.11833534 221.29868103 189.11833534 222.5279541 190.32701111 C227.15401134 194.93252891 231.26108214 199.64537138 235 205 C223.38091047 206.49915455 211.76430775 207.49955952 200.0625 208.0625 C199.19367313 208.1042976 198.32484627 208.1460952 197.42969131 208.18915939 C161.78821656 209.69794416 161.78821656 209.69794416 148.13595581 197.2796936 C142.21890267 191.50686949 136.96058878 185.23549933 131.77362823 178.811409 C118.35437016 161.34508914 118.35437016 161.34508914 98.68841553 152.92733765 C83.80425869 151.38252189 70.11002454 153.41557287 55 155 C55 171.5 55 188 55 205 C36.85 205 18.7 205 0 205 C0 137.35 0 69.7 0 0 Z M55 50 C55 68.15 55 86.3 55 105 C74.48433894 105.14551252 74.48433894 105.14551252 93.96875 105.24414062 C101.91977481 105.27399009 109.87048111 105.30924164 117.82128906 105.37719727 C124.23389978 105.43166077 130.64620059 105.46145124 137.05902481 105.47438622 C139.50138347 105.48360021 141.94372583 105.50159302 144.385952 105.52865028 C147.81610055 105.56512949 151.24498058 105.56993723 154.67529297 105.56762695 C155.67727219 105.58560333 156.6792514 105.60357971 157.71159363 105.62210083 C165.93496334 105.56246085 172.24494713 103.06671978 178.62109375 97.859375 C184.50160285 91.03039669 187.72688213 84.48355605 187.34375 75.3203125 C186.13778876 67.18007411 182.16982091 60.38615414 176 55 C171.11644844 51.90289469 166.28959055 49.87310195 160.46321106 49.87974548 C159.53353012 49.87837082 158.60384918 49.87699615 157.64599609 49.87557983 C156.11930298 49.88097275 156.11930298 49.88097275 154.56176758 49.88647461 C153.48843674 49.88632858 152.4151059 49.88618256 151.30924988 49.8860321 C147.75432325 49.8867299 144.19944874 49.89451614 140.64453125 49.90234375 C138.18259205 49.9042084 135.72065247 49.90563208 133.25871277 49.90663147 C126.77319314 49.91045294 120.28769585 49.92028009 113.80218506 49.93133545 C106.02368901 49.94335418 98.24518509 49.94795357 90.46668243 49.95378876 C78.64443942 49.96349201 66.82224541 49.9826512 55 50 Z " fill="#0E1D49" transform="translate(2225,142)"/>
<path d="M0 0 C2.02960293 -0.00389644 4.05920505 -0.00823302 6.08880615 -0.01298523 C10.32827404 -0.02041302 14.5676586 -0.0201817 18.80712891 -0.01489258 C24.19736521 -0.00910895 29.58725666 -0.02601925 34.97743607 -0.04923725 C39.16603537 -0.06408477 43.35455378 -0.06483132 47.54317474 -0.06172752 C49.52837556 -0.06223543 51.51358156 -0.06737142 53.49875641 -0.07753944 C83.6696375 -0.21311394 110.23623602 7.756776 132.046875 29.30078125 C151.78761251 49.29395786 161.7616878 76.03640313 162.06982422 103.93115234 C161.79605722 132.19905133 149.531061 158.65141411 129.4753418 178.33886719 C106.53160976 200.08630649 79.83479666 205.45603954 49.22265625 205.46875 C47.38958206 205.47197063 45.55650812 205.47533529 43.72343445 205.47883606 C39.89154465 205.48480023 36.05967731 205.48667881 32.2277832 205.48608398 C27.35760973 205.48598262 22.48758287 205.49962084 17.61744404 205.51685619 C13.83293518 205.52806665 10.04846074 205.53000042 6.263937 205.52947426 C4.47049646 205.53064133 2.67705464 205.53499002 0.88363075 205.54280663 C-30.28411857 205.66592264 -56.24386659 198.34353788 -79.484375 176.7578125 C-99.50349786 156.83371712 -110.10778278 130.95409017 -110.328125 102.80078125 C-110.12760001 77.17953602 -101.41069377 52.319596 -83.953125 33.30078125 C-83.10878906 32.37523437 -82.26445313 31.4496875 -81.39453125 30.49609375 C-58.86408497 6.88654046 -31.49554789 -0.02535123 0 0 Z M-46.5390625 70.203125 C-55.64057152 81.88192218 -59.07530942 94.62471315 -57.953125 109.30078125 C-55.464546 123.86285678 -47.88036414 135.37570151 -36.078125 144.17578125 C-31.03147146 147.51918922 -25.73645015 149.58241307 -19.953125 151.30078125 C-19.40494614 151.47711594 -18.85676727 151.65345062 -18.29197693 151.83512878 C-14.9018703 152.51008024 -11.52907927 152.46529496 -8.08618164 152.4777832 C-6.90230865 152.48764 -6.90230865 152.48764 -5.69451904 152.49769592 C-3.08410536 152.51739178 -0.47374933 152.52908775 2.13671875 152.5390625 C3.48043139 152.54517579 3.48043139 152.54517579 4.85128975 152.55141258 C9.59950656 152.57226479 14.3476946 152.58656609 19.09594727 152.59594727 C23.97112208 152.60696609 28.84583473 152.64131569 33.72084713 152.68111897 C37.49327873 152.70743271 41.26560309 152.71565246 45.03811836 152.71922874 C46.8332383 152.72406241 48.6283545 152.73558298 50.42338371 152.75426674 C67.98435524 152.92558405 82.81455963 149.73073733 96.046875 137.30078125 C106.60283439 124.72928269 110.41014635 111.68281535 109.27001953 95.37792969 C107.8952903 82.581216 100.42814137 71.44822152 90.76953125 63.3046875 C77.14233875 53.27491741 61.81139744 51.82584673 45.421875 51.90234375 C43.86116399 51.90031484 42.30045392 51.89739668 40.73974609 51.89364624 C37.49241985 51.88926118 34.24534369 51.89552896 30.99804688 51.90966797 C26.87657756 51.92675768 22.75569474 51.91689571 18.63424683 51.89895058 C15.41849505 51.8880083 12.20287785 51.89160636 8.98712158 51.89933395 C7.4691765 51.90130727 5.9512184 51.89898013 4.43328857 51.89189529 C-15.07631097 51.82077479 -32.68557325 55.34842488 -46.5390625 70.203125 Z " fill="#0E1D49" transform="translate(1396.953125,141.69921875)"/>
<path d="M0 0 C0 118.14 0 236.28 0 358 C-11.70296416 364.15945482 -23.39870279 370.28014302 -35.22265625 376.1953125 C-36.67047254 376.92083483 -38.11826143 377.64641184 -39.56602478 378.37203979 C-42.55056537 379.86725615 -45.53588836 381.36089627 -48.52172852 382.85351562 C-52.35129436 384.76824687 -56.17803676 386.68855371 -60.00417423 388.61012459 C-62.9701 390.09862185 -65.93781633 391.58352009 -68.90606499 393.067379 C-70.32014696 393.77500968 -71.7335811 394.48393651 -73.14634895 395.19418716 C-75.10099 396.17637492 -77.05806869 397.15352327 -79.01586914 398.12939453 C-80.12660294 398.68547394 -81.23733673 399.24155334 -82.38172913 399.81448364 C-85 401 -85 401 -87 401 C-87 282.86 -87 164.72 -87 43 C-75.29703584 36.84054518 -63.60129721 30.71985698 -51.77734375 24.8046875 C-50.32952746 24.07916517 -48.88173857 23.35358816 -47.43397522 22.62796021 C-44.44943463 21.13274385 -41.46411164 19.63910373 -38.47827148 18.14648438 C-34.64870564 16.23175313 -30.82196324 14.31144629 -26.99582577 12.38987541 C-24.0299 10.90137815 -21.06218367 9.41647991 -18.09393501 7.932621 C-16.67985304 7.22499032 -15.2664189 6.51606349 -13.85365105 5.80581284 C-11.89901 4.82362508 -9.94193131 3.84647673 -7.98413086 2.87060547 C-6.87339706 2.31452606 -5.76266327 1.75844666 -4.61827087 1.18551636 C-2 0 -2 0 0 0 Z " fill="#0E1D49" transform="translate(337,195)"/>
<path d="M0 0 C0 118.14 0 236.28 0 358 C-11.70296416 364.15945482 -23.39870279 370.28014302 -35.22265625 376.1953125 C-36.67047254 376.92083483 -38.11826143 377.64641184 -39.56602478 378.37203979 C-42.55056537 379.86725615 -45.53588836 381.36089627 -48.52172852 382.85351562 C-52.35129436 384.76824687 -56.17803676 386.68855371 -60.00417423 388.61012459 C-62.9701 390.09862185 -65.93781633 391.58352009 -68.90606499 393.067379 C-70.32014696 393.77500968 -71.7335811 394.48393651 -73.14634895 395.19418716 C-75.10099 396.17637492 -77.05806869 397.15352327 -79.01586914 398.12939453 C-80.12660294 398.68547394 -81.23733673 399.24155334 -82.38172913 399.81448364 C-85 401 -85 401 -87 401 C-87 282.86 -87 164.72 -87 43 C-75.29703584 36.84054518 -63.60129721 30.71985698 -51.77734375 24.8046875 C-50.32952746 24.07916517 -48.88173857 23.35358816 -47.43397522 22.62796021 C-44.44943463 21.13274385 -41.46411164 19.63910373 -38.47827148 18.14648438 C-34.64870564 16.23175313 -30.82196324 14.31144629 -26.99582577 12.38987541 C-24.0299 10.90137815 -21.06218367 9.41647991 -18.09393501 7.932621 C-16.67985304 7.22499032 -15.2664189 6.51606349 -13.85365105 5.80581284 C-11.89901 4.82362508 -9.94193131 3.84647673 -7.98413086 2.87060547 C-6.87339706 2.31452606 -5.76266327 1.75844666 -4.61827087 1.18551636 C-2 0 -2 0 0 0 Z " fill="#0E1D49" transform="translate(87,195)"/>
<path d="M0 0 C0 118.14 0 236.28 0 358 C-11.70296416 364.15945482 -23.39870279 370.28014302 -35.22265625 376.1953125 C-36.67047254 376.92083483 -38.11826143 377.64641184 -39.56602478 378.37203979 C-42.55056537 379.86725615 -45.53588836 381.36089627 -48.52172852 382.85351562 C-52.35129436 384.76824687 -56.17803676 386.68855371 -60.00417423 388.61012459 C-62.9701 390.09862185 -65.93781633 391.58352009 -68.90606499 393.067379 C-70.32014696 393.77500968 -71.7335811 394.48393651 -73.14634895 395.19418716 C-75.10099 396.17637492 -77.05806869 397.15352327 -79.01586914 398.12939453 C-80.12660294 398.68547394 -81.23733673 399.24155334 -82.38172913 399.81448364 C-85 401 -85 401 -87 401 C-87 282.86 -87 164.72 -87 43 C-75.29703584 36.84054518 -63.60129721 30.71985698 -51.77734375 24.8046875 C-50.32952746 24.07916517 -48.88173857 23.35358816 -47.43397522 22.62796021 C-44.44943463 21.13274385 -41.46411164 19.63910373 -38.47827148 18.14648438 C-34.64870564 16.23175313 -30.82196324 14.31144629 -26.99582577 12.38987541 C-24.0299 10.90137815 -21.06218367 9.41647991 -18.09393501 7.932621 C-16.67985304 7.22499032 -15.2664189 6.51606349 -13.85365105 5.80581284 C-11.89901 4.82362508 -9.94193131 3.84647673 -7.98413086 2.87060547 C-6.87339706 2.31452606 -5.76266327 1.75844666 -4.61827087 1.18551636 C-2 0 -2 0 0 0 Z " fill="#0E1D49" transform="translate(464,0)"/>
<path d="M0 0 C0 118.47 0 236.94 0 359 C-84 401 -84 401 -86 401 C-86 282.86 -86 164.72 -86 43 C-74.28679411 36.8351548 -62.58135025 30.71424404 -50.7421875 24.8046875 C-49.29194441 24.07922758 -47.8417606 23.35364913 -46.39163208 22.62796021 C-43.40284573 21.1328416 -40.41336444 19.63912504 -37.42333984 18.14648438 C-33.58539098 16.23040604 -29.74930129 14.31063674 -25.91369438 12.38987541 C-22.94287574 10.902668 -19.97111589 9.41734964 -16.99905777 7.932621 C-15.58171346 7.22428235 -14.16466596 6.51534947 -12.74792099 5.80581284 C-10.78977342 4.82547851 -8.83037563 3.84769111 -6.87060547 2.87060547 C-5.75765106 2.31452606 -4.64469666 1.75844666 -3.49801636 1.18551636 C-1 0 -1 0 0 0 Z " fill="#0E1D49" transform="translate(210,0)"/>
<path d="M0 0 C26.915625 -0.061875 53.83125 -0.12375 81.5625 -0.1875 C94.27890015 -0.22846802 94.27890015 -0.22846802 107.25219727 -0.27026367 C117.65808105 -0.28381348 117.65808105 -0.28381348 122.53990173 -0.28633118 C125.92680336 -0.28910981 129.31356184 -0.3002866 132.70042419 -0.31672668 C137.03744535 -0.33749595 141.37426212 -0.34343843 145.71132839 -0.33921683 C147.29247845 -0.34009795 148.87363659 -0.34593229 150.4547435 -0.35764539 C175.27511051 -0.53278994 194.96144589 6.60100625 213.25 23.75 C228.109573 39.15816077 234.519694 59.4110802 234.42602539 80.45263672 C234.19898607 88.69989909 232.53108203 96.17825346 230 104 C229.566875 105.38058594 229.566875 105.38058594 229.125 106.7890625 C222.1066298 126.52822868 206.17518942 140.02490196 188.140625 149.359375 C173.02364637 155.70735251 158.55150545 155.53036604 142.37890625 155.390625 C139.82202093 155.38315131 137.26512982 155.37746372 134.70823669 155.37347412 C128.70556339 155.35985031 122.7032471 155.32844427 116.70071596 155.28807616 C109.18269638 155.23863456 101.66462642 155.21700868 94.14648438 155.1953125 C80.76409182 155.15657247 67.38234799 155.07640992 54 155 C54 171.5 54 188 54 205 C36.18 205 18.36 205 0 205 C0 137.35 0 69.7 0 0 Z M54 50 C54 68.15 54 86.3 54 105 C73.50876599 105.11639185 73.50876599 105.11639185 93.01757812 105.1953125 C100.97741561 105.2192006 108.93702557 105.24742537 116.89672852 105.30175781 C123.3158069 105.3452986 129.73468736 105.36915486 136.15390205 105.37950897 C138.5998604 105.38688547 141.04580822 105.40129001 143.49168205 105.42292023 C146.92429681 105.45206259 150.3560993 105.45595133 153.78881836 105.45410156 C154.79439285 105.46848267 155.79996735 105.48286377 156.83601379 105.49768066 C165.63113143 105.44657728 172.90498595 102.84818739 179.4296875 96.82421875 C184.43437608 91.01031436 187.42209817 83.70009386 187 76 C185.88333148 68.57681308 183.50063494 62.23761082 178 57 C171.99732258 52.65683056 166.8102487 49.87122118 159.34295654 49.87974548 C157.94637314 49.87768349 157.94637314 49.87768349 156.52157593 49.87557983 C155.00027573 49.88097275 155.00027573 49.88097275 153.44824219 49.88647461 C152.37476532 49.88632858 151.30128845 49.88618256 150.19528198 49.8860321 C146.64579246 49.88672897 143.09635536 49.89451086 139.546875 49.90234375 C137.08636504 49.90420873 134.6258547 49.90563226 132.16534424 49.90663147 C125.68805924 49.91045033 119.21079665 49.92027528 112.73352051 49.93133545 C104.96250878 49.94336119 97.19148956 49.94795481 89.42047119 49.95378876 C77.61363187 49.96348733 65.80684173 49.98264834 54 50 Z " fill="#0E1D49" transform="translate(699,142)"/>
<path d="M0 0 C0.84460281 -0.01606293 1.68920563 -0.03212585 2.55940247 -0.04867554 C6.42387081 -0.09314436 10.28816764 -0.13419111 14.15283203 -0.15722656 C16.19070862 -0.17378543 18.22852715 -0.20107449 20.26611328 -0.23925781 C23.2046521 -0.2940413 26.14182974 -0.31590267 29.08081055 -0.33056641 C29.98930252 -0.35323578 30.89779449 -0.37590515 31.83381653 -0.39926147 C36.34239703 -0.38421613 38.2793944 -0.28795528 41.95654297 2.53808594 C45.08449287 6.79987359 45.00246067 10.02900811 44.9050293 15.19287109 C41.2750293 15.19287109 37.6450293 15.19287109 33.9050293 15.19287109 C33.9050293 13.54287109 33.9050293 11.89287109 33.9050293 10.19287109 C23.0150293 10.19287109 12.1250293 10.19287109 0.9050293 10.19287109 C0.9050293 14.15287109 0.9050293 18.11287109 0.9050293 22.19287109 C2.00492188 22.18239746 3.10481445 22.17192383 4.23803711 22.16113281 C8.32312763 22.12490204 12.40820397 22.1019594 16.4934082 22.08300781 C18.26068511 22.07295726 20.02794542 22.05931468 21.79516602 22.04199219 C24.33703715 22.01770224 26.87868818 22.00637854 29.4206543 21.99755859 C30.60368134 21.98207474 30.60368134 21.98207474 31.81060791 21.96627808 C38.85341237 21.96484128 38.85341237 21.96484128 41.9050293 24.19287109 C44.90517187 28.75417383 45.37020763 32.86232963 45.2800293 38.19287109 C45.29163086 38.87865234 45.30323242 39.56443359 45.31518555 40.27099609 C45.28823822 44.97779628 44.58237673 48.30676343 41.9050293 52.19287109 C37.00674754 55.30457925 33.04763211 55.63617263 27.4362793 55.59130859 C26.63774536 55.59417877 25.83921143 55.59704895 25.01647949 55.6000061 C23.33560472 55.60203892 21.65470588 55.59656398 19.97387695 55.58398438 C17.41262519 55.56791874 14.85295119 55.58385887 12.29174805 55.60302734 C10.65242168 55.60104477 9.01309628 55.59720081 7.3737793 55.59130859 C6.2344696 55.60041763 6.2344696 55.60041763 5.07214355 55.60971069 C-0.51778119 55.5363892 -4.63285187 54.32670741 -8.9699707 50.56787109 C-10.75591413 46.79754609 -10.2775355 43.33100644 -10.0949707 39.19287109 C-6.4649707 39.19287109 -2.8349707 39.19287109 0.9050293 39.19287109 C0.9050293 40.84287109 0.9050293 42.49287109 0.9050293 44.19287109 C11.7950293 44.19287109 22.6850293 44.19287109 33.9050293 44.19287109 C33.9050293 40.56287109 33.9050293 36.93287109 33.9050293 33.19287109 C32.91172607 33.20858154 31.91842285 33.22429199 30.89501953 33.24047852 C27.18449112 33.29507308 23.47399772 33.32932765 19.76318359 33.35766602 C18.16188573 33.37268575 16.56062854 33.39310772 14.95947266 33.41918945 C12.64825359 33.45587547 10.33758174 33.47266544 8.02612305 33.48583984 C7.31854355 33.5013237 6.61096405 33.51680756 5.88194275 33.53276062 C0.1287555 33.53467723 -4.50037286 32.32054745 -9.00512695 28.62646484 C-10.80094832 24.61644078 -10.56673717 20.59475224 -10.5324707 16.25537109 C-10.55245117 15.36140625 -10.57243164 14.46744141 -10.59301758 13.54638672 C-10.58983098 9.25404392 -10.4972775 6.8413533 -8.19262695 3.12646484 C-5.33063445 0.48831533 -3.78663899 0.06542158 0 0 Z " fill="#0E1D49" transform="translate(1357.094970703125,441.80712890625)"/>
<path d="M0 0 C11.9728125 -0.12375 11.9728125 -0.12375 24.1875 -0.25 C26.70012451 -0.28641602 29.21274902 -0.32283203 31.80151367 -0.36035156 C33.79865667 -0.37203676 35.79580921 -0.38222899 37.79296875 -0.390625 C38.82538696 -0.41108887 39.85780518 -0.43155273 40.92150879 -0.45263672 C48.23168472 -0.45619096 48.23168472 -0.45619096 52.11962891 1.85229492 C56.24639752 6.56576979 56.34096195 11.92064468 56.3125 17.9375 C56.32861328 18.61490234 56.34472656 19.29230469 56.36132812 19.99023438 C56.36625137 25.12518398 55.34190205 28.53469872 53 33 C50.08179979 35.24476939 47.53354279 36.17475646 44 37 C44.92232422 38.01320313 44.92232422 38.01320313 45.86328125 39.046875 C46.67152344 39.93890625 47.47976563 40.8309375 48.3125 41.75 C49.11300781 42.63171875 49.91351562 43.5134375 50.73828125 44.421875 C56 50.41968912 56 50.41968912 56 55 C51.81265417 55.71228048 48.1716778 55.88549765 44 55 C39.36016769 51.36546469 35.67979305 46.79320054 32.64453125 41.74609375 C31.19609617 39.500785 30.32851695 38.36439903 28 37 C22.37244092 35.8756399 16.72889038 36.04406839 11 36 C11 42.27 11 48.54 11 55 C7.37 55 3.74 55 0 55 C0 36.85 0 18.7 0 0 Z M11 11 C11 15.62 11 20.24 11 25 C22.22 25 33.44 25 45 25 C45 20.38 45 15.76 45 11 C33.78 11 22.56 11 11 11 Z " fill="#0E1D49" transform="translate(1875,442)"/>
<path d="M0 0 C11.9728125 -0.12375 11.9728125 -0.12375 24.1875 -0.25 C26.70012451 -0.28641602 29.21274902 -0.32283203 31.80151367 -0.36035156 C33.79865667 -0.37203676 35.79580921 -0.38222899 37.79296875 -0.390625 C38.82538696 -0.41108887 39.85780518 -0.43155273 40.92150879 -0.45263672 C48.24633497 -0.45619808 48.24633497 -0.45619808 52.13793945 1.89941406 C56.17529358 6.45394335 55.22160859 11.48871185 55.25 17.3125 C55.270625 18.35857422 55.29125 19.40464844 55.3125 20.48242188 C55.32023438 22.00125977 55.32023438 22.00125977 55.328125 23.55078125 C55.34214355 24.93777222 55.34214355 24.93777222 55.35644531 26.3527832 C54.92768232 29.53708263 53.86739064 31.407836 52 34 C49.40022099 35.45647275 46.8714108 36.10562614 44 37 C44.7940625 37.88042969 45.588125 38.76085937 46.40625 39.66796875 C47.43814591 40.84057774 48.46936054 42.01378652 49.5 43.1875 C50.02464844 43.76564453 50.54929687 44.34378906 51.08984375 44.93945312 C54.92306367 49.34516693 54.92306367 49.34516693 55.34375 52.92578125 C55.2303125 53.61027344 55.116875 54.29476562 55 55 C50.74996538 55.86780812 47.23015787 56.05388016 43 55 C37.66595214 50.97355869 33.69650484 44.76245036 30.234375 39.125 C26.88441604 35.93902505 23.71263905 36.22256239 19.25 36.1875 C16.5275 36.125625 13.805 36.06375 11 36 C11 42.27 11 48.54 11 55 C7.37 55 3.74 55 0 55 C0 36.85 0 18.7 0 0 Z M11 11 C11 15.62 11 20.24 11 25 C21.89 25 32.78 25 44 25 C44 20.38 44 15.76 44 11 C33.11 11 22.22 11 11 11 Z " fill="#0E1D49" transform="translate(772,442)"/>
<path d="M0 0 C7.79625 -0.103125 15.5925 -0.20625 23.625 -0.3125 C26.07631348 -0.35802002 28.52762695 -0.40354004 31.05322266 -0.45043945 C33.00682203 -0.4650492 34.96043667 -0.47778872 36.9140625 -0.48828125 C37.91977295 -0.51386108 38.9254834 -0.53944092 39.96166992 -0.5657959 C47.94853361 -0.57075176 47.94853361 -0.57075176 51.63037109 2.34301758 C55.83266935 7.05490836 55.2481953 11.81501467 55.3125 17.8125 C55.34150391 18.70259766 55.37050781 19.59269531 55.40039062 20.50976562 C55.45513403 26.19044621 54.8824088 29.54397405 51 34 C48.08235 35.9451 46.37462715 36.45276317 43 37 C44.04800781 38.13888672 44.04800781 38.13888672 45.1171875 39.30078125 C46.03656422 40.30459053 46.95582921 41.30850215 47.875 42.3125 C48.33519531 42.81201172 48.79539062 43.31152344 49.26953125 43.82617188 C55 50.09646739 55 50.09646739 55 55 C50.84341344 55.63298273 47.14180563 55.80742781 43 55 C38.60286608 51.69717543 35.30001417 47.43063255 32.7109375 42.58984375 C31.29324429 40.07000839 30.39241259 38.66598913 28 37 C22.39127598 35.73023527 16.73074808 36 11 36 C11 42.27 11 48.54 11 55 C7.37 55 3.74 55 0 55 C0 36.85 0 18.7 0 0 Z M11 11 C11 15.62 11 20.24 11 25 C21.89 25 32.78 25 44 25 C44 20.38 44 15.76 44 11 C33.11 11 22.22 11 11 11 Z " fill="#0E1D49" transform="translate(1496,442)"/>
<path d="M0 0 C0.84452728 -0.0159874 1.68905457 -0.03197479 2.55917358 -0.04844666 C3.92327866 -0.05649071 3.92327866 -0.05649071 5.31494141 -0.06469727 C6.72243149 -0.07823997 6.72243149 -0.07823997 8.15835571 -0.09205627 C10.14378668 -0.10656541 12.12926554 -0.11544716 14.11474609 -0.11914062 C17.14844586 -0.13103273 20.18010878 -0.18020766 23.21337891 -0.23071289 C25.14305648 -0.24017769 27.07274655 -0.24741245 29.00244141 -0.25219727 C29.90779633 -0.27172958 30.81315125 -0.2912619 31.74594116 -0.31138611 C36.28612776 -0.27895428 38.17033184 -0.18452341 41.84082031 2.71630859 C45.21693778 7.19906582 44.88025821 9.80362963 44.79150391 15.30639648 C41.16150391 15.30639648 37.53150391 15.30639648 33.79150391 15.30639648 C33.79150391 13.65639648 33.79150391 12.00639648 33.79150391 10.30639648 C22.90150391 10.30639648 12.01150391 10.30639648 0.79150391 10.30639648 C0.79150391 21.52639648 0.79150391 32.74639648 0.79150391 44.30639648 C11.68150391 44.30639648 22.57150391 44.30639648 33.79150391 44.30639648 C33.79150391 41.00639648 33.79150391 37.70639648 33.79150391 34.30639648 C29.83150391 34.30639648 25.87150391 34.30639648 21.79150391 34.30639648 C21.79150391 30.67639648 21.79150391 27.04639648 21.79150391 23.30639648 C29.38150391 23.30639648 36.97150391 23.30639648 44.79150391 23.30639648 C44.8996644 27.18214756 44.97890711 31.05486607 45.04150391 34.93139648 C45.09177734 36.57301758 45.09177734 36.57301758 45.14306641 38.24780273 C45.2536561 47.37145271 45.2536561 47.37145271 43.08837891 50.95483398 C39.10006592 55.0381068 35.36600713 55.53553258 29.73768616 55.60993958 C28.97298508 55.60902817 28.208284 55.60811676 27.42041016 55.60717773 C26.62046127 55.61146286 25.82051239 55.61574799 24.99632263 55.62016296 C23.30948836 55.62588927 21.6226294 55.62641908 19.93579102 55.62207031 C17.36577928 55.61891096 14.79692035 55.64238752 12.22705078 55.66772461 C10.58317202 55.66999797 8.93929018 55.67070093 7.29541016 55.66967773 C6.53273331 55.67888748 5.77005646 55.68809723 4.98426819 55.69758606 C-0.6738901 55.64891906 -4.67684789 54.51432245 -9.05859375 50.69287109 C-10.87308829 46.92712074 -10.63605475 43.2492412 -10.60693359 39.12280273 C-10.60980377 38.23028305 -10.61267395 37.33776337 -10.6156311 36.41819763 C-10.61767018 34.53286097 -10.61215122 32.64750308 -10.59960938 30.76220703 C-10.58357226 27.88257281 -10.59945343 25.00434612 -10.61865234 22.12475586 C-10.61666951 20.2907684 -10.61282502 18.45678181 -10.60693359 16.62280273 C-10.61300629 15.76433243 -10.61907898 14.90586212 -10.62533569 14.02137756 C-10.57013232 9.30713324 -10.30381507 6.10941173 -7.20849609 2.30639648 C-4.14354232 0.26309397 -3.46497934 0.04967569 0 0 Z " fill="#0E1D49" transform="translate(705.20849609375,441.693603515625)"/>
<path d="M0 0 C1.26679092 -0.01913956 1.26679092 -0.01913956 2.55917358 -0.03866577 C3.46857697 -0.04089142 4.37798035 -0.04311707 5.31494141 -0.04541016 C6.25326813 -0.05206696 7.19159485 -0.05872375 8.15835571 -0.06558228 C10.14379923 -0.07570883 12.12927678 -0.08039929 14.11474609 -0.08007812 C17.14819663 -0.08444629 20.18018634 -0.12075186 23.21337891 -0.15869141 C25.14306143 -0.1645606 27.07275087 -0.16852931 29.00244141 -0.17041016 C29.90779633 -0.18478119 30.81315125 -0.19915222 31.74594116 -0.21395874 C35.95554411 -0.18351467 38.19719746 -0.08052163 41.84082031 2.19433594 C44.47424669 5.02419813 44.91760293 6.5365445 44.96850586 10.29370117 C44.98775871 11.53057426 44.98775871 11.53057426 45.00740051 12.79243469 C45.01478745 13.68512558 45.02217438 14.57781647 45.02978516 15.49755859 C45.0378569 16.41510422 45.04592865 17.33264984 45.054245 18.27799988 C45.06808884 20.222342 45.07880965 22.16670846 45.08666992 24.11108398 C45.10387556 27.08087386 45.14775773 30.04954847 45.19189453 33.01904297 C45.20202209 34.90770665 45.21053799 36.79637981 45.21728516 38.68505859 C45.23479324 39.57167679 45.25230133 40.45829498 45.27033997 41.3717804 C45.25621948 45.39733543 45.11997796 47.7203645 43.07739258 51.26586914 C38.27128182 55.52273943 33.62782633 55.59870689 27.42041016 55.59130859 C26.62046127 55.59559372 25.82051239 55.59987885 24.99632263 55.60429382 C23.30948836 55.61002013 21.6226294 55.61054994 19.93579102 55.60620117 C17.36577928 55.60304182 14.79692035 55.62651838 12.22705078 55.65185547 C10.58317202 55.65412883 8.93929018 55.65483179 7.29541016 55.65380859 C6.53273331 55.66301834 5.77005646 55.67222809 4.98426819 55.68171692 C0.23067047 55.64083023 -3.19063581 55.09257771 -7.20849609 52.29052734 C-10.53970881 47.52888889 -10.65042752 43.19967902 -10.60693359 37.60302734 C-10.60980377 36.78229736 -10.61267395 35.96156738 -10.6156311 35.1159668 C-10.61766433 33.38801378 -10.61218654 31.66003735 -10.59960938 29.93212891 C-10.5835445 27.29846364 -10.59948267 24.6663328 -10.61865234 22.03271484 C-10.61666978 20.34781565 -10.61282583 18.6629174 -10.60693359 16.97802734 C-10.61300629 16.19661377 -10.61907898 15.4152002 -10.62533569 14.61010742 C-10.56386932 9.79386683 -9.88773249 6.451409 -7.20849609 2.29052734 C-4.1376773 0.24331481 -3.47059426 0.03565115 0 0 Z M0.79150391 10.29052734 C0.79150391 21.51052734 0.79150391 32.73052734 0.79150391 44.29052734 C11.68150391 44.29052734 22.57150391 44.29052734 33.79150391 44.29052734 C33.79150391 33.07052734 33.79150391 21.85052734 33.79150391 10.29052734 C22.90150391 10.29052734 12.01150391 10.29052734 0.79150391 10.29052734 Z " fill="#0E1D49" transform="translate(1808.20849609375,441.70947265625)"/>
<path d="M0 0 C1.26679092 -0.01902626 1.26679092 -0.01902626 2.55917358 -0.03843689 C3.46857697 -0.03550125 4.37798035 -0.03256561 5.31494141 -0.02954102 C6.25326813 -0.03478287 7.19159485 -0.04002472 8.15835571 -0.04542542 C10.14380911 -0.05184993 12.12930055 -0.05050308 14.11474609 -0.04199219 C17.14831691 -0.03349819 20.17999497 -0.06221161 23.21337891 -0.09399414 C25.14306584 -0.09560667 27.07275611 -0.09502763 29.00244141 -0.09204102 C29.90779633 -0.10327499 30.81315125 -0.11450897 31.74594116 -0.12608337 C35.95183864 -0.07971072 38.20214754 0.03566962 41.84082031 2.31005859 C46.89360254 7.73405273 45.09842937 17.11277484 45.14160156 24.16967773 C45.15814437 26.15221916 45.18541226 28.13470136 45.22363281 30.11694336 C45.27851754 32.97858554 45.30029438 35.83882944 45.31494141 38.70092773 C45.33761078 39.58238464 45.36028015 40.46384155 45.38363647 41.37200928 C45.36915712 45.6088828 45.15791855 48.53159136 42.50878906 51.94799805 C37.9095775 56.1050572 33.77065024 55.57295125 27.77197266 55.60717773 C26.60677849 55.61572784 26.60677849 55.61572784 25.41804504 55.62445068 C23.7765132 55.63388022 22.13496259 55.64042652 20.4934082 55.64428711 C17.99803152 55.65397883 15.50348389 55.68501492 13.00830078 55.71655273 C11.40869627 55.72308504 9.80908589 55.72833462 8.20947266 55.73217773 C7.47069382 55.74452454 6.73191498 55.75687134 5.9707489 55.76959229 C0.86282275 55.74791941 -2.76303537 55.01180003 -7.20849609 52.40405273 C-10.60773261 47.70786473 -10.65009542 43.25761086 -10.60693359 37.68139648 C-10.60980377 36.85829483 -10.61267395 36.03519318 -10.6156311 35.18714905 C-10.61766413 33.45499988 -10.61218774 31.72282735 -10.59960938 29.99072266 C-10.5835236 27.34607498 -10.59949391 24.70295059 -10.61865234 22.05834961 C-10.61667018 20.37019521 -10.61282705 18.68204176 -10.60693359 16.99389648 C-10.61300629 16.20732162 -10.61907898 15.42074677 -10.62533569 14.6103363 C-10.55414777 9.03178795 -9.37693174 6.00634331 -5.86761475 1.79489136 C-3.77853535 0.04361678 -2.70032006 0.01965888 0 0 Z M0.79150391 11.40405273 C0.70307561 13.85209041 0.67614418 16.27250068 0.69384766 18.72045898 C0.69485474 19.36817261 0.69586182 20.01588623 0.69689941 20.68322754 C0.70214548 23.11102052 0.71610666 25.53878834 0.72900391 27.96655273 C0.74962891 33.39092773 0.77025391 38.81530273 0.79150391 44.40405273 C11.68150391 44.40405273 22.57150391 44.40405273 33.79150391 44.40405273 C33.79150391 33.18405273 33.79150391 21.96405273 33.79150391 10.40405273 C28.53212891 10.38342773 23.27275391 10.36280273 17.85400391 10.34155273 C15.36172241 10.32789673 15.36172241 10.32789673 12.8190918 10.31396484 C10.87377563 10.31021851 10.87377563 10.31021851 8.88916016 10.30639648 C8.20333862 10.30128052 7.51751709 10.29616455 6.81091309 10.29089355 C3.51965652 10.00356971 3.51965652 10.00356971 0.79150391 11.40405273 Z " fill="#0E1D49" transform="translate(1202.20849609375,441.595947265625)"/>
<path d="M0 0 C12 0 12 0 14.82421875 1.80078125 C15.43910156 2.62964844 16.05398438 3.45851563 16.6875 4.3125 C17.40679688 5.23160156 18.12609375 6.15070313 18.8671875 7.09765625 C19.57101562 8.05542969 20.27484375 9.01320313 21 10 C22.42938958 11.75663078 23.86700485 13.50659815 25.3125 15.25 C26.40498047 16.60158203 26.40498047 16.60158203 27.51953125 17.98046875 C30.97387798 22.1855239 34.53153493 26.29928989 38.1027832 30.40527344 C41.89413183 34.78826367 41.89413183 34.78826367 43 37 C43.33 24.79 43.66 12.58 44 0 C47.63 0 51.26 0 55 0 C55 18.15 55 36.3 55 55 C43 55 43 55 40.17578125 53.19921875 C39.56089844 52.37035156 38.94601562 51.54148437 38.3125 50.6875 C37.59320312 49.76839844 36.87390625 48.84929687 36.1328125 47.90234375 C35.07707031 46.46568359 35.07707031 46.46568359 34 45 C32.57061042 43.24336922 31.13299515 41.49340185 29.6875 39.75 C28.59501953 38.39841797 28.59501953 38.39841797 27.48046875 37.01953125 C24.02612202 32.8144761 20.46846507 28.70071011 16.8972168 24.59472656 C13.10586817 20.21173633 13.10586817 20.21173633 12 18 C11.67 30.21 11.34 42.42 11 55 C7.37 55 3.74 55 0 55 C0 36.85 0 18.7 0 0 Z " fill="#0E1D49" transform="translate(1270,442)"/>
<path d="M0 0 C0.91330078 -0.0038269 1.82660156 -0.00765381 2.76757812 -0.01159668 C4.69402166 -0.01431253 6.62050228 -0.00697424 8.546875 0.00976562 C11.49042208 0.03118032 14.43152855 0.00995329 17.375 -0.015625 C19.25000537 -0.01298167 21.12500923 -0.00785657 23 0 C23.87720703 -0.00809692 24.75441406 -0.01619385 25.65820312 -0.02453613 C29.79350057 0.03871387 31.95688074 0.18935082 35.53125 2.43945312 C38.2134039 5.28924164 38.62716512 6.82312076 38.69287109 10.6262207 C38.70893402 11.47082352 38.72499695 12.31542633 38.74154663 13.18562317 C38.78601545 17.05009152 38.8270622 20.91438834 38.85009766 24.77905273 C38.86665652 26.81692933 38.89394558 28.85474786 38.93212891 30.89233398 C38.9869124 33.8308728 39.00877376 36.76805045 39.0234375 39.70703125 C39.04610687 40.61552322 39.06877625 41.5240152 39.09213257 42.46003723 C39.07723126 46.92545313 38.96396497 48.9110256 36.21728516 52.58276367 C31.46202396 55.99262347 27.20219447 55.70172871 21.48046875 55.734375 C20.31527458 55.74292511 20.31527458 55.74292511 19.12654114 55.75164795 C17.48500929 55.76107748 15.84345869 55.76762379 14.2019043 55.77148438 C11.70652762 55.7811761 9.21197999 55.81221219 6.71679688 55.84375 C5.11719236 55.85028231 3.51758199 55.85553189 1.91796875 55.859375 C1.17918991 55.8717218 0.44041107 55.8840686 -0.320755 55.89678955 C-5.30727484 55.8756318 -9.13488752 55.17816198 -13.5 52.53125 C-16.57859796 47.44487076 -16.93542822 42.91127993 -16.86328125 37.1484375 C-16.86402901 35.98249557 -16.86402901 35.98249557 -16.86479187 34.79299927 C-16.86246528 33.16096419 -16.85282102 31.52892457 -16.83618164 29.89697266 C-16.81249998 27.40624821 -16.81564244 24.91659046 -16.82226562 22.42578125 C-16.8166906 20.83332699 -16.80958183 19.2408772 -16.80078125 17.6484375 C-16.80214836 16.53890213 -16.80214836 16.53890213 -16.80354309 15.4069519 C-16.72814128 9.88728477 -16.16906477 6.40413326 -12.46875 2.25195312 C-8.28435078 -0.17334669 -4.75787837 -0.04391686 0 0 Z M-5.5 11.53125 C-5.58843793 13.97955426 -5.61528752 16.39945599 -5.59765625 18.84765625 C-5.5962413 19.57871078 -5.59482635 20.30976532 -5.59336853 21.06297302 C-5.58775408 23.40660632 -5.57519922 25.75014539 -5.5625 28.09375 C-5.55748686 29.67903508 -5.55292363 31.26432166 -5.54882812 32.84960938 C-5.53777997 36.7435261 -5.52050572 40.63737205 -5.5 44.53125 C-0.81860746 44.55590288 3.86274759 44.57408739 8.54418945 44.58618164 C10.13794614 44.59122157 11.73169819 44.5980535 13.32543945 44.60668945 C15.61150253 44.61876999 17.89750467 44.62448155 20.18359375 44.62890625 C20.90026718 44.63406754 21.61694061 44.63922882 22.35533142 44.64454651 C24.07063672 44.64474263 25.78581266 44.59317007 27.5 44.53125 C29.17673649 42.85451351 28.62787817 40.80269924 28.63894653 38.56469727 C28.6369223 37.87303467 28.63489807 37.18137207 28.6328125 36.46875 C28.63376923 35.76226318 28.63472595 35.05577637 28.63571167 34.32788086 C28.63639333 32.83154207 28.63454005 31.33520033 28.63037109 29.83886719 C28.62502257 27.54094843 28.63031651 25.24322514 28.63671875 22.9453125 C28.63605797 21.49479123 28.6347768 20.04427009 28.6328125 18.59375 C28.63483673 17.9020874 28.63686096 17.2104248 28.63894653 16.49780273 C28.90230733 13.23389362 28.90230733 13.23389362 27.5 10.53125 C25.13601532 10.4304688 22.80188689 10.39151785 20.4375 10.3984375 C19.73101318 10.39748077 19.02452637 10.39652405 18.29663086 10.39553833 C16.80029207 10.39485667 15.30395033 10.39670995 13.80761719 10.40087891 C11.50969843 10.40622743 9.21197514 10.40093349 6.9140625 10.39453125 C5.46354123 10.39519203 4.01302009 10.3964732 2.5625 10.3984375 C1.8708374 10.39641327 1.1791748 10.39438904 0.46655273 10.39230347 C-2.79735638 10.12894267 -2.79735638 10.12894267 -5.5 11.53125 Z " fill="#0E1D49" transform="translate(1016.5,441.46875)"/>
<path d="M0 0 C11.9728125 -0.12375 11.9728125 -0.12375 24.1875 -0.25 C26.70012451 -0.28641602 29.21274902 -0.32283203 31.80151367 -0.36035156 C33.79865667 -0.37203676 35.79580921 -0.38222899 37.79296875 -0.390625 C38.82538696 -0.41108887 39.85780518 -0.43155273 40.92150879 -0.45263672 C48.24633497 -0.45619808 48.24633497 -0.45619808 52.13793945 1.89941406 C56.24864281 6.53668844 55.2989286 11.88238867 55.375 17.8125 C55.43107422 19.4531543 55.43107422 19.4531543 55.48828125 21.12695312 C55.57716441 29.23013412 55.57716441 29.23013412 52.6015625 33.19921875 C48.20844952 36.24009725 44.92175709 36.13131618 39.7109375 36.09765625 C38.48330185 36.09553383 38.48330185 36.09553383 37.23086548 36.09336853 C34.61220675 36.0877629 31.99363296 36.07520948 29.375 36.0625 C27.60156373 36.05748572 25.82812613 36.05292269 24.0546875 36.04882812 C19.70306581 36.03864174 15.35162818 36.0190675 11 36 C11 42.27 11 48.54 11 55 C7.37 55 3.74 55 0 55 C0 36.85 0 18.7 0 0 Z M11 11 C11 15.62 11 20.24 11 25 C21.89 25 32.78 25 44 25 C44 20.38 44 15.76 44 11 C33.11 11 22.22 11 11 11 Z " fill="#0E1D49" transform="translate(926,442)"/>
<path d="M0 0 C3.63 0 7.26 0 11 0 C11 14.52 11 29.04 11 44 C21.89 44 32.78 44 44 44 C44 29.48 44 14.96 44 0 C47.63 0 51.26 0 55 0 C55.07421336 6.60194443 55.12863267 13.20364547 55.16479492 19.8059082 C55.17987182 22.05139394 55.20033653 24.29685029 55.22631836 26.54223633 C55.26274918 29.77172099 55.27973755 33.00081594 55.29296875 36.23046875 C55.30845261 37.23272995 55.32393646 38.23499115 55.33988953 39.2676239 C55.34208329 48.3740264 55.34208329 48.3740264 52 52 C47.21598162 55.21717327 43.09364985 55.44291015 37.53125 55.3984375 C36.73271606 55.40130768 35.93418213 55.40417786 35.1114502 55.40713501 C33.43057543 55.40916783 31.74967658 55.40369289 30.06884766 55.39111328 C27.50759589 55.37504765 24.9479219 55.39098778 22.38671875 55.41015625 C20.74739238 55.40817368 19.10806698 55.40432971 17.46875 55.3984375 C16.32944031 55.40754654 16.32944031 55.40754654 15.16711426 55.4168396 C10.41861297 55.35455482 7.05286739 54.72548632 3 52 C-1.13967398 47.50868507 -0.3818118 41.98122873 -0.29296875 36.23046875 C-0.28872391 35.19432938 -0.28447906 34.15819 -0.28010559 33.09065247 C-0.26334605 29.78933458 -0.2256981 26.48863263 -0.1875 23.1875 C-0.17244967 20.94597237 -0.15876188 18.70443515 -0.14648438 16.46289062 C-0.11345131 10.97502398 -0.06168705 5.48761634 0 0 Z " fill="#0E1D49" transform="translate(849,442)"/>
<path d="M0 0 C3.63 0 7.26 0 11 0 C11.33 14.19 11.66 28.38 12 43 C22.56 43 33.12 43 44 43 C44.33 28.81 44.66 14.62 45 0 C48.63 0 52.26 0 56 0 C56.04948638 6.31712708 56.08576074 12.63414098 56.10986328 18.95141602 C56.11991265 21.09987351 56.13355433 23.24831737 56.15087891 25.39672852 C56.17517376 28.48717622 56.18649386 31.57744287 56.1953125 34.66796875 C56.20563507 35.62648239 56.21595764 36.58499603 56.22659302 37.57255554 C56.22757177 43.40735933 55.98946193 47.61264569 52.125 52.25 C47.9293842 55.70521302 43.13537434 55.16022737 37.91015625 55.16796875 C36.73784706 55.17296135 36.73784706 55.17296135 35.54185486 55.17805481 C33.89192288 55.18310822 32.24198072 55.18546363 30.59204102 55.18530273 C28.07486058 55.18748926 25.5581186 55.20566159 23.04101562 55.22460938 C21.43489733 55.22754367 19.82877695 55.22952822 18.22265625 55.23046875 C17.47355484 55.23765427 16.72445343 55.24483978 15.95265198 55.25224304 C10.60082571 55.22896877 6.93618704 54.55970623 2.75 51.1875 C-1.11269229 46.35913464 -0.13012174 39.77836563 -0.09765625 33.88671875 C-0.0962413 32.91716751 -0.09482635 31.94761627 -0.09336853 30.94868469 C-0.08778513 27.86159133 -0.07523564 24.77457133 -0.0625 21.6875 C-0.05748286 19.59049584 -0.05292032 17.49349054 -0.04882812 15.39648438 C-0.03782112 10.26429479 -0.02056788 5.13215982 0 0 Z " fill="#0E1D49" transform="translate(1572,442)"/>
<path d="M0 0 C0.98086578 0.00007553 1.96173157 0.00015106 2.97232056 0.00022888 C4.03381317 0.00539017 5.09530579 0.01055145 6.18896484 0.01586914 C7.27374115 0.01728409 8.35851746 0.01869904 9.47616577 0.02015686 C12.95077234 0.02576737 16.42531515 0.03832167 19.89990234 0.05102539 C22.25146392 0.05603904 24.60302649 0.06060218 26.95458984 0.06469727 C32.72805202 0.07574022 38.50146636 0.09301193 44.27490234 0.11352539 C44.27490234 3.41352539 44.27490234 6.71352539 44.27490234 10.11352539 C29.75490234 10.11352539 15.23490234 10.11352539 0.27490234 10.11352539 C0.27490234 21.33352539 0.27490234 32.55352539 0.27490234 44.11352539 C14.79490234 44.11352539 29.31490234 44.11352539 44.27490234 44.11352539 C44.27490234 47.74352539 44.27490234 51.37352539 44.27490234 55.11352539 C37.83368437 55.18782076 31.39271725 55.2421968 24.95117188 55.27832031 C22.76102349 55.29338345 20.57090516 55.31383798 18.38085938 55.33984375 C15.22827731 55.37633528 12.07609497 55.39327678 8.92333984 55.40649414 C7.94811371 55.421978 6.97288757 55.43746185 5.96810913 55.45341492 C-0.33718525 55.45496704 -4.64574576 54.77953054 -9.57299805 50.51367188 C-11.41039539 46.68585809 -11.1726385 42.90327629 -11.15869141 38.71118164 C-11.16393326 37.79646591 -11.16917511 36.88175018 -11.17457581 35.9393158 C-11.18099231 34.00691746 -11.17966381 32.07448005 -11.17114258 30.14208984 C-11.16263734 27.18980121 -11.19139096 24.23945081 -11.22314453 21.28735352 C-11.22475682 19.4077968 -11.22417849 17.52823667 -11.22119141 15.64868164 C-11.23242538 14.76833755 -11.24365936 13.88799347 -11.25523376 12.98097229 C-11.20821971 8.83341398 -11.07280233 6.66690449 -8.8190918 3.08007812 C-5.74793063 0.19582918 -4.1076228 -0.01053237 0 0 Z " fill="#0E1D49" transform="translate(1660.72509765625,441.886474609375)"/>
<path d="M0 0 C0.98086578 0.00007553 1.96173157 0.00015106 2.97232056 0.00022888 C4.03381317 0.00539017 5.09530579 0.01055145 6.18896484 0.01586914 C7.27374115 0.01728409 8.35851746 0.01869904 9.47616577 0.02015686 C12.95077234 0.02576737 16.42531515 0.03832167 19.89990234 0.05102539 C22.25146392 0.05603904 24.60302649 0.06060218 26.95458984 0.06469727 C32.72805202 0.07574022 38.50146636 0.09301193 44.27490234 0.11352539 C44.27490234 3.41352539 44.27490234 6.71352539 44.27490234 10.11352539 C29.75490234 10.11352539 15.23490234 10.11352539 0.27490234 10.11352539 C0.27490234 21.33352539 0.27490234 32.55352539 0.27490234 44.11352539 C14.79490234 44.11352539 29.31490234 44.11352539 44.27490234 44.11352539 C44.27490234 47.74352539 44.27490234 51.37352539 44.27490234 55.11352539 C37.83368437 55.18782076 31.39271725 55.2421968 24.95117188 55.27832031 C22.76102349 55.29338345 20.57090516 55.31383798 18.38085938 55.33984375 C15.22827731 55.37633528 12.07609497 55.39327678 8.92333984 55.40649414 C7.94811371 55.421978 6.97288757 55.43746185 5.96810913 55.45341492 C-0.33718525 55.45496704 -4.64574576 54.77953054 -9.57299805 50.51367188 C-11.41039539 46.68585809 -11.1726385 42.90327629 -11.15869141 38.71118164 C-11.16393326 37.79646591 -11.16917511 36.88175018 -11.17457581 35.9393158 C-11.18099231 34.00691746 -11.17966381 32.07448005 -11.17114258 30.14208984 C-11.16263734 27.18980121 -11.19139096 24.23945081 -11.22314453 21.28735352 C-11.22475682 19.4077968 -11.22417849 17.52823667 -11.22119141 15.64868164 C-11.23242538 14.76833755 -11.24365936 13.88799347 -11.25523376 12.98097229 C-11.20821971 8.83341398 -11.07280233 6.66690449 -8.8190918 3.08007812 C-5.74793063 0.19582918 -4.1076228 -0.01053237 0 0 Z " fill="#0E1D49" transform="translate(1126.72509765625,441.886474609375)"/>
<path d="M0 0 C18.15 0 36.3 0 55 0 C55 3.3 55 6.6 55 10 C47.74 10 40.48 10 33 10 C33 24.85 33 39.7 33 55 C29.37 55 25.74 55 22 55 C22 40.15 22 25.3 22 10 C14.74 10 7.48 10 0 10 C0 6.7 0 3.4 0 0 Z " fill="#0E1D49" transform="translate(1724,442)"/>
<path d="M0 0 C18.15 0 36.3 0 55 0 C55 3.3 55 6.6 55 10 C47.74 10 40.48 10 33 10 C33 24.85 33 39.7 33 55 C29.37 55 25.74 55 22 55 C22 40.15 22 25.3 22 10 C14.74 10 7.48 10 0 10 C0 6.7 0 3.4 0 0 Z " fill="#0E1D49" transform="translate(1421,442)"/>
</svg>
