<?xml version="1.0" encoding="UTF-8"?>
<!DOCTYPE svg PUBLIC "-//W3C//DTD SVG 1.1//EN" "http://www.w3.org/Graphics/SVG/1.1/DTD/svg11.dtd">
<svg xmlns="http://www.w3.org/2000/svg" version="1.1" width="900px" height="900px" style="shape-rendering:geometricPrecision; text-rendering:geometricPrecision; image-rendering:optimizeQuality; fill-rule:evenodd; clip-rule:evenodd" xmlns:xlink="http://www.w3.org/1999/xlink">
<g><path style="opacity:0.974" fill="#363434" d="M 34.5,360.5 C 51.5,360.5 68.5,360.5 85.5,360.5C 91.1667,383.167 96.8333,405.833 102.5,428.5C 73.1591,428.833 43.8258,428.5 14.5,427.5C 21.177,405.139 27.8436,382.805 34.5,360.5 Z"/></g>
<g><path style="opacity:0.985" fill="#363434" d="M 162.5,360.5 C 190.175,360.167 217.841,360.5 245.5,361.5C 223.693,391.807 201.693,421.973 179.5,452C 201.693,482.027 223.693,512.193 245.5,542.5C 217.839,543.667 190.173,543.833 162.5,543C 148.877,523.587 135.377,504.087 122,484.5C 121.333,462.833 121.333,441.167 122,419.5C 135.721,399.953 149.221,380.286 162.5,360.5 Z"/></g>
<g><path style="opacity:0.957" fill="#363434" d="M 416.5,384.5 C 440.163,381.695 454.996,391.695 461,414.5C 463.634,429.926 459.468,443.093 448.5,454C 434.252,463.208 419.586,463.874 404.5,456C 392.312,446.125 387.146,433.292 389,417.5C 390.844,400.174 400.011,389.174 416.5,384.5 Z M 423.5,403.5 C 434.762,404.943 440.095,411.443 439.5,423C 439.485,437.703 432.485,443.37 418.5,440C 410.158,431.276 408.658,421.442 414,410.5C 416.505,407.147 419.671,404.814 423.5,403.5 Z"/></g>
<g><path style="opacity:0.947" fill="#363434" d="M 314.5,385.5 C 321.833,385.5 329.167,385.5 336.5,385.5C 336.334,393.84 336.5,402.173 337,410.5C 344.718,402.237 352.551,394.071 360.5,386C 369.851,385.168 379.184,385.335 388.5,386.5C 377.684,398.484 366.684,410.317 355.5,422C 367.318,434.652 379.318,447.152 391.5,459.5C 381.517,460.666 371.517,460.832 361.5,460C 353.333,451.167 345.167,442.333 337,433.5C 336.5,442.494 336.334,451.494 336.5,460.5C 329.167,460.5 321.833,460.5 314.5,460.5C 314.5,435.5 314.5,410.5 314.5,385.5 Z"/></g>
<g><path style="opacity:0.958" fill="#363434" d="M 470.5,385.5 C 477.508,385.334 484.508,385.5 491.5,386C 499.542,398.585 507.709,411.085 516,423.5C 516.5,410.838 516.667,398.171 516.5,385.5C 523.167,385.5 529.833,385.5 536.5,385.5C 536.5,410.5 536.5,435.5 536.5,460.5C 529.468,460.83 522.468,460.497 515.5,459.5C 507.136,446.968 498.97,434.301 491,421.5C 490.5,434.496 490.333,447.496 490.5,460.5C 483.833,460.5 477.167,460.5 470.5,460.5C 470.5,435.5 470.5,410.5 470.5,385.5 Z"/></g>
<g><path style="opacity:0.948" fill="#363434" d="M 552.5,385.5 C 559.833,385.5 567.167,385.5 574.5,385.5C 574.334,394.173 574.5,402.84 575,411.5C 582.833,403 590.667,394.5 598.5,386C 608.184,385.168 617.851,385.335 627.5,386.5C 616.134,397.865 605.134,409.531 594.5,421.5C 606.167,434.167 617.833,446.833 629.5,459.5C 619.851,460.665 610.184,460.832 600.5,460C 592,450.833 583.5,441.667 575,432.5C 574.5,441.827 574.334,451.161 574.5,460.5C 567.167,460.5 559.833,460.5 552.5,460.5C 552.5,435.5 552.5,410.5 552.5,385.5 Z"/></g>
<g><path style="opacity:0.942" fill="#363434" d="M 633.5,385.5 C 649.549,385.078 665.549,385.578 681.5,387C 696.726,393.652 701.226,404.819 695,420.5C 691.222,425.482 686.389,429.148 680.5,431.5C 689.527,441.194 698.86,450.527 708.5,459.5C 698.517,460.666 688.517,460.832 678.5,460C 671.698,452.197 664.531,444.697 657,437.5C 656.5,445.159 656.334,452.826 656.5,460.5C 648.833,460.5 641.167,460.5 633.5,460.5C 633.5,435.5 633.5,410.5 633.5,385.5 Z M 656.5,403.5 C 661.511,403.334 666.511,403.501 671.5,404C 677.05,408.147 676.717,411.814 670.5,415C 665.845,415.499 661.179,415.666 656.5,415.5C 656.5,411.5 656.5,407.5 656.5,403.5 Z"/></g>
<g><path style="opacity:0.951" fill="#363434" d="M 716.5,385.5 C 738.167,385.5 759.833,385.5 781.5,385.5C 781.5,391.833 781.5,398.167 781.5,404.5C 767.167,404.5 752.833,404.5 738.5,404.5C 738.5,407.167 738.5,409.833 738.5,412.5C 751.833,412.5 765.167,412.5 778.5,412.5C 778.5,418.833 778.5,425.167 778.5,431.5C 765.167,431.5 751.833,431.5 738.5,431.5C 738.5,434.5 738.5,437.5 738.5,440.5C 752.833,440.5 767.167,440.5 781.5,440.5C 781.5,447.167 781.5,453.833 781.5,460.5C 759.833,460.5 738.167,460.5 716.5,460.5C 716.5,435.5 716.5,410.5 716.5,385.5 Z"/></g>
<g><path style="opacity:0.954" fill="#363434" d="M 790.5,385.5 C 812.833,385.5 835.167,385.5 857.5,385.5C 857.5,391.833 857.5,398.167 857.5,404.5C 849.833,404.5 842.167,404.5 834.5,404.5C 834.5,423.167 834.5,441.833 834.5,460.5C 827.167,460.5 819.833,460.5 812.5,460.5C 812.5,441.833 812.5,423.167 812.5,404.5C 805.167,404.5 797.833,404.5 790.5,404.5C 790.5,398.167 790.5,391.833 790.5,385.5 Z"/></g>
<g><path style="opacity:0.982" fill="#ec3236" d="M 5.5,438.5 C 40.8333,438.5 76.1667,438.5 111.5,438.5C 111.5,447.5 111.5,456.5 111.5,465.5C 76.1667,465.5 40.8333,465.5 5.5,465.5C 5.5,456.5 5.5,447.5 5.5,438.5 Z"/></g>
<g><path style="opacity:0.97" fill="#363434" d="M 14.5,475.5 C 43.8333,475.5 73.1667,475.5 102.5,475.5C 96.8369,498.158 91.1702,520.825 85.5,543.5C 68.4967,543.667 51.4967,543.5 34.5,543C 27.5332,520.599 20.8666,498.099 14.5,475.5 Z"/></g>
<g><path style="opacity:0.785" fill="#363434" d="M 314.5,501.5 C 317.85,501.335 321.183,501.502 324.5,502C 329.233,504.922 329.566,508.255 325.5,512C 322.854,512.497 320.187,512.664 317.5,512.5C 317.5,514.833 317.5,517.167 317.5,519.5C 316.5,519.5 315.5,519.5 314.5,519.5C 314.5,513.5 314.5,507.5 314.5,501.5 Z M 317.5,504.5 C 319.527,504.338 321.527,504.505 323.5,505C 324.833,506.333 324.833,507.667 323.5,509C 321.527,509.495 319.527,509.662 317.5,509.5C 317.5,507.833 317.5,506.167 317.5,504.5 Z"/></g>
<g><path style="opacity:0.741" fill="#363434" d="M 361.5,501.5 C 365.514,501.334 369.514,501.501 373.5,502C 377.446,505.46 377.446,508.96 373.5,512.5C 375.226,514.228 376.559,516.228 377.5,518.5C 376.277,519.614 374.944,519.781 373.5,519C 372.167,517 370.833,515 369.5,513C 367.866,512.506 366.199,512.34 364.5,512.5C 364.5,514.833 364.5,517.167 364.5,519.5C 363.5,519.5 362.5,519.5 361.5,519.5C 361.5,513.5 361.5,507.5 361.5,501.5 Z M 364.5,504.5 C 366.857,504.337 369.19,504.503 371.5,505C 372.925,506.714 372.592,508.047 370.5,509C 368.527,509.495 366.527,509.662 364.5,509.5C 364.5,507.833 364.5,506.167 364.5,504.5 Z"/></g>
<g><path style="opacity:0.779" fill="#363434" d="M 410.5,501.5 C 414.833,501.5 419.167,501.5 423.5,501.5C 423.5,502.5 423.5,503.5 423.5,504.5C 420.167,504.5 416.833,504.5 413.5,504.5C 413.5,505.833 413.5,507.167 413.5,508.5C 416.833,508.5 420.167,508.5 423.5,508.5C 423.5,509.5 423.5,510.5 423.5,511.5C 420.167,511.5 416.833,511.5 413.5,511.5C 413.5,513.167 413.5,514.833 413.5,516.5C 417.167,516.5 420.833,516.5 424.5,516.5C 424.5,517.5 424.5,518.5 424.5,519.5C 419.833,519.5 415.167,519.5 410.5,519.5C 410.5,513.5 410.5,507.5 410.5,501.5 Z"/></g>
<g><path style="opacity:0.69" fill="#363434" d="M 457.5,501.5 C 459.288,501.215 460.955,501.548 462.5,502.5C 463.716,506.321 465.216,509.988 467,513.5C 468.136,509.757 469.47,506.09 471,502.5C 472.356,501.62 473.856,501.286 475.5,501.5C 475.5,507.5 475.5,513.5 475.5,519.5C 474.5,519.5 473.5,519.5 472.5,519.5C 473.005,505.223 471.672,505.223 468.5,519.5C 467.167,519.5 465.833,519.5 464.5,519.5C 462.264,507.738 461.264,507.738 461.5,519.5C 460.167,519.5 458.833,519.5 457.5,519.5C 457.5,513.5 457.5,507.5 457.5,501.5 Z"/></g>
<g><path style="opacity:0.758" fill="#363434" d="M 509.5,501.5 C 513.833,501.5 518.167,501.5 522.5,501.5C 522.5,502.5 522.5,503.5 522.5,504.5C 519.167,504.5 515.833,504.5 512.5,504.5C 512.5,505.833 512.5,507.167 512.5,508.5C 515.833,508.5 519.167,508.5 522.5,508.5C 522.5,509.5 522.5,510.5 522.5,511.5C 519.167,511.5 515.833,511.5 512.5,511.5C 512.5,513.167 512.5,514.833 512.5,516.5C 516.167,516.5 519.833,516.5 523.5,516.5C 523.5,517.5 523.5,518.5 523.5,519.5C 518.833,519.5 514.167,519.5 509.5,519.5C 509.5,513.5 509.5,507.5 509.5,501.5 Z"/></g>
<g><path style="opacity:0.725" fill="#363434" d="M 556.5,501.5 C 560.833,501.5 565.167,501.5 569.5,501.5C 569.657,502.873 569.49,504.207 569,505.5C 566.167,509 563.333,512.5 560.5,516C 563.817,516.498 567.15,516.665 570.5,516.5C 570.5,517.5 570.5,518.5 570.5,519.5C 565.5,519.5 560.5,519.5 555.5,519.5C 555.491,517.692 555.991,516.025 557,514.5C 559.5,511.5 562,508.5 564.5,505.5C 561.914,504.52 559.247,504.187 556.5,504.5C 556.5,503.5 556.5,502.5 556.5,501.5 Z"/></g>
<g><path style="opacity:0.717" fill="#363434" d="M 606.5,501.5 C 610.257,501.071 613.757,501.737 617,503.5C 617.5,504.5 618,505.5 618.5,506.5C 616.37,507.777 614.704,507.277 613.5,505C 608.842,503.813 606.175,505.647 605.5,510.5C 606.175,515.353 608.842,517.187 613.5,516C 614.613,512.412 616.28,511.912 618.5,514.5C 617.872,516.258 616.872,517.758 615.5,519C 605.055,521.222 600.888,517.055 603,506.5C 603.997,504.677 605.164,503.01 606.5,501.5 Z"/></g>
<g><path style="opacity:0.649" fill="#363434" d="M 651.5,501.5 C 652.833,501.5 654.167,501.5 655.5,501.5C 655.5,506.5 655.5,511.5 655.5,516.5C 658.167,516.5 660.833,516.5 663.5,516.5C 663.5,517.5 663.5,518.5 663.5,519.5C 659.5,519.5 655.5,519.5 651.5,519.5C 651.5,513.5 651.5,507.5 651.5,501.5 Z"/></g>
<g><path style="opacity:0.725" fill="#363434" d="M 701.5,501.5 C 702.833,501.5 704.167,501.5 705.5,501.5C 707.5,507.5 709.5,513.5 711.5,519.5C 708.679,519.684 707.012,518.351 706.5,515.5C 704.257,514.526 701.924,514.192 699.5,514.5C 699.81,518.332 698.143,519.832 694.5,519C 696.934,513.195 699.268,507.361 701.5,501.5 Z M 702.5,506.5 C 703.601,507.848 704.601,509.348 705.5,511C 704.056,511.781 702.723,511.614 701.5,510.5C 702.246,509.264 702.579,507.93 702.5,506.5 Z"/></g>
<g><path style="opacity:0.765" fill="#363434" d="M 744.5,501.5 C 755.65,499.158 760.483,503.492 759,514.5C 758.215,516.286 757.049,517.786 755.5,519C 751.848,519.499 748.182,519.665 744.5,519.5C 744.5,513.5 744.5,507.5 744.5,501.5 Z M 747.5,504.5 C 752.653,503.326 755.653,505.326 756.5,510.5C 755.653,515.674 752.653,517.674 747.5,516.5C 747.5,512.5 747.5,508.5 747.5,504.5 Z"/></g>
<g><path style="opacity:0.739" fill="#363434" d="M 796.5,501.5 C 807.104,500.275 811.27,504.941 809,515.5C 805.736,519.328 801.569,520.495 796.5,519C 791.208,513.168 791.208,507.335 796.5,501.5 Z M 798.5,504.5 C 804.74,504.294 807.24,507.294 806,513.5C 799.412,518.509 796.078,516.842 796,508.5C 796.662,507.016 797.496,505.683 798.5,504.5 Z"/></g>
<g><path style="opacity:0.726" fill="#363434" d="M 845.5,501.5 C 848.187,501.336 850.854,501.503 853.5,502C 855.607,503.264 856.607,505.097 856.5,507.5C 854.009,507.16 851.842,506.16 850,504.5C 847.263,504.376 846.429,505.376 847.5,507.5C 852.269,507.877 855.602,510.21 857.5,514.5C 856.872,516.258 855.872,517.758 854.5,519C 851.5,519.667 848.5,519.667 845.5,519C 841.986,516.874 841.82,514.707 845,512.5C 847.108,516.82 849.941,517.486 853.5,514.5C 850.56,512.563 847.394,510.896 844,509.5C 843.109,506.502 843.609,503.836 845.5,501.5 Z"/></g>
</svg>
